<svg version="1.0" xmlns="http://www.w3.org/2000/svg"
 width="200.000000pt" height="200.000000pt" viewBox="0 0 200.000000 200.000000"
 preserveAspectRatio="xMidYMid meet">
<metadata>
Created by potrace 1.16, written by Peter Selinger 2001-2019
</metadata>
<g transform="translate(0.000000,200.000000) scale(0.100000,-0.100000)"
fill="#000000" stroke="none">
<path d="M0 1000 l0 -1000 1000 0 1000 0 0 1000 0 1000 -1000 0 -1000 0 0
-1000z m1194 869 c169 -84 237 -174 256 -340 6 -52 10 -159 9 -239 -1 -80 1
-157 5 -171 12 -41 -25 -105 -66 -118 -149 -44 -171 -63 -161 -147 8 -73 -7
-84 -107 -81 -61 1 -76 5 -68 14 6 7 20 10 33 7 47 -12 110 -10 123 3 11 10
12 22 4 51 -9 33 -11 35 -17 15 -10 -30 -23 -29 -35 3 -13 34 -13 39 3 25 16
-12 27 -5 27 18 0 14 -2 14 -10 1 -7 -11 -10 1 -11 40 0 30 -3 48 -7 40 -8
-17 -32 -25 -32 -10 0 6 5 10 10 10 6 0 10 13 10 29 0 16 5 42 12 58 6 15 10
34 9 41 -2 14 28 16 49 2 13 -9 13 -10 0 -10 -8 0 -21 -9 -28 -20 -18 -30 8
-27 38 5 12 13 28 23 34 22 6 -1 10 6 10 16 -2 22 15 22 23 0 3 -10 15 -31 26
-47 11 -15 16 -31 11 -35 -12 -8 -16 -51 -4 -51 5 0 12 4 15 10 3 6 14 10 23
10 22 1 53 28 70 61 12 23 11 30 -7 60 -14 23 -21 51 -21 89 0 30 -3 65 -6 78
-9 34 -34 8 -34 -35 0 -35 -12 -66 -37 -94 -13 -15 -20 -15 -80 -2 -36 8 -95
31 -131 50 l-65 34 8 -33 c4 -18 7 -64 7 -102 0 -64 -2 -71 -26 -89 -15 -10
-33 -16 -42 -13 -10 4 -13 2 -8 -6 5 -8 2 -9 -9 -5 -9 3 -16 3 -14 -1 4 -14
-16 -15 -36 -1 -51 35 -58 48 -53 98 2 27 10 59 16 72 7 12 14 47 16 77 2 30
6 57 8 61 2 3 21 6 43 6 32 0 38 -3 35 -20 -2 -19 -2 -19 9 -2 8 14 14 16 25
6 12 -10 14 -5 14 29 0 23 -6 45 -15 52 -8 7 -15 18 -15 26 0 17 -32 26 -64
18 -22 -5 -25 -10 -20 -33 4 -19 3 -22 -5 -11 -15 22 -25 5 -25 -49 -1 -38 -7
-56 -26 -76 -56 -60 -188 -113 -235 -95 -32 12 -37 23 -40 88 -3 76 -3 75 -18
60 -14 -13 -39 -128 -41 -187 -1 -39 25 -64 46 -43 10 10 10 17 0 33 -12 18
-11 20 4 11 12 -7 31 -5 62 6 33 11 50 12 62 4 10 -6 27 -8 38 -5 11 2 23 -1
27 -8 6 -8 4 -10 -6 -4 -12 8 -12 6 0 -8 7 -9 19 -17 26 -17 12 0 25 -21 25
-41 0 -5 -16 -9 -35 -9 -34 0 -46 -12 -25 -25 8 -5 7 -11 -1 -21 -10 -12 -9
-13 5 -8 9 3 16 15 16 25 0 10 5 19 10 19 6 0 10 -5 10 -11 0 -5 5 -7 10 -4 6
4 10 -9 10 -32 0 -27 -3 -34 -10 -23 -12 19 -20 9 -30 -32 l-8 -33 -1 37 c-1
30 -5 36 -21 35 -21 -1 -23 -15 -10 -57 l8 -25 2 25 2 25 8 -25 c13 -42 11
-59 -9 -70 -18 -9 -20 -6 -27 37 -6 45 -44 103 -67 103 -4 0 -30 9 -56 21 -39
16 -52 29 -67 61 -10 23 -19 57 -20 77 -1 20 -5 86 -9 146 -8 125 7 307 31
379 19 54 84 117 184 177 84 49 169 69 280 66 78 -3 93 -7 174 -48z m-359
-1149 c83 -44 157 -82 165 -83 8 0 100 45 204 101 104 56 191 101 193 98 2 -2
-38 -27 -89 -56 -167 -94 -197 -113 -191 -123 3 -6 1 -7 -5 -3 -13 8 -262
-131 -262 -146 0 -5 -4 -6 -10 -3 -5 3 -10 2 -10 -4 0 -12 -168 -104 -190
-104 -8 0 -21 -4 -27 -10 -9 -6 -13 -6 -13 0 0 9 80 59 288 178 45 25 82 50
82 53 0 13 -81 53 -93 46 -6 -4 -9 -4 -5 1 9 9 -7 22 -77 60 -94 51 -205 117
-205 121 0 6 66 -28 245 -126z m-165 -412 l9 -23 0 23 c1 17 7 22 26 22 24 0
25 -2 25 -70 0 -56 -3 -70 -15 -70 -10 0 -16 11 -17 33 l-1 32 -4 -32 c-5 -38
-32 -46 -34 -10 l-2 22 -4 -22 c-3 -15 -12 -23 -24 -23 -17 0 -19 8 -19 70 0
68 1 70 25 70 17 0 29 -7 35 -22z m375 -25 c10 -72 13 -74 14 -10 1 49 4 57
20 57 12 0 23 -11 29 -27 l10 -28 1 28 c1 17 6 27 16 27 12 0 15 -14 15 -70 0
-63 -2 -70 -20 -70 -14 0 -20 7 -21 23 l-2 22 -4 -22 c-4 -19 -11 -23 -43 -23
-21 0 -41 6 -44 13 -5 10 -7 10 -12 0 -9 -21 -46 -16 -40 5 2 9 8 41 11 70 6
49 9 52 35 52 27 0 29 -3 35 -47z"/>
<path d="M882 1895 c-112 -25 -267 -128 -302 -201 -23 -46 -24 -82 -5 -139 9
-29 13 -34 14 -17 1 15 5 21 13 16 8 -5 9 0 6 14 -4 12 -2 20 3 16 16 -9 9
-77 -11 -123 -17 -37 -22 -41 -35 -31 -8 7 -15 19 -15 27 0 8 -4 11 -10 8 -15
-9 -12 -61 4 -74 8 -7 18 -27 22 -44 l7 -31 20 43 c24 52 85 99 139 107 23 4
38 12 38 20 0 9 10 14 28 13 15 0 21 -3 15 -6 -25 -10 -12 -23 22 -23 23 0 35
-5 35 -14 0 -8 7 -17 16 -20 8 -3 13 -2 10 2 -2 4 34 9 81 10 70 2 84 0 75
-11 -8 -10 -6 -20 8 -42 18 -27 20 -28 20 -8 0 12 -5 23 -12 25 -21 7 0 36 33
43 18 4 33 15 36 25 3 11 11 16 19 13 8 -3 14 0 14 6 0 17 37 13 44 -4 3 -8
15 -15 26 -15 36 0 87 -27 120 -64 18 -20 37 -36 41 -36 21 0 16 39 -12 96
-32 65 -34 114 -5 114 27 0 24 67 -5 119 -34 58 -86 99 -198 153 -73 36 -96
42 -160 45 -42 1 -105 -4 -139 -12z"/>
</g>
</svg>
